/* XPM */
static char *aamij_l902o[] = {
/* columns rows colors chars-per-pixel */
"64 64 146 2 ",
"   c #2D1F1E",
".  c #2C211E",
"X  c #31231E",
"o  c #2E2422",
"O  c #332623",
"+  c #382622",
"@  c #352925",
"#  c #3B2C26",
"$  c #362B29",
"%  c #3C2E2A",
"&  c #3E3027",
"*  c #3E312B",
"=  c #3E2E30",
"-  c #3E3330",
";  c #402F27",
":  c #402F2A",
">  c #413127",
",  c #43332C",
"<  c #48362D",
"1  c #48372C",
"2  c #48362F",
"3  c #48372F",
"4  c #48352C",
"5  c #48372E",
"6  c #47382F",
"7  c #46382E",
"8  c #49392D",
"9  c #49382E",
"0  c #49392F",
"q  c #4A382E",
"w  c #4A392E",
"e  c #4B382F",
"r  c #4C392E",
"t  c #4E3F2F",
"y  c #4A392E",
"u  c #422F30",
"i  c #453130",
"p  c #433630",
"a  c #463531",
"s  c #453730",
"d  c #453631",
"f  c #473731",
"g  c #453631",
"h  c #483730",
"j  c #483731",
"k  c #433931",
"l  c #453831",
"z  c #443931",
"x  c #473831",
"c  c #473931",
"v  c #473A31",
"b  c #473832",
"n  c #473933",
"m  c #463832",
"M  c #483830",
"N  c #493830",
"B  c #493930",
"V  c #493831",
"C  c #4A3830",
"Z  c #4A3930",
"A  c #4B3930",
"S  c #483A31",
"D  c #4A3A30",
"F  c #4B3B30",
"G  c #4A3B31",
"H  c #483932",
"J  c #493932",
"K  c #4A3932",
"L  c #483B33",
"P  c #4A3A33",
"I  c #4C3930",
"U  c #4C3931",
"Y  c #4C3A30",
"T  c #4D3B30",
"R  c #4C3A31",
"E  c #4C3B31",
"W  c #4D3A32",
"Q  c #4D3B32",
"!  c #4C3B33",
"~  c #4E3B32",
"^  c #4A3C32",
"/  c #4D3C30",
"(  c #4F3D31",
")  c #4F3F30",
"_  c #4C3C32",
"`  c #4D3D32",
"'  c #4D3D33",
"]  c #4E3C33",
"[  c #4F3C33",
"{  c #4F3D33",
"}  c #483934",
"|  c #493935",
" . c #483A34",
".. c #4B3B35",
"X. c #4C3B34",
"o. c #4D3A35",
"O. c #4D3B36",
"+. c #4B3E35",
"@. c #4C3C34",
"#. c #4E3D35",
"$. c #4C3E34",
"%. c #4C3E35",
"&. c #4D3E35",
"*. c #4E3E34",
"=. c #4E3E35",
"-. c #4D3D37",
";. c #4E3D36",
":. c #4E3E36",
">. c #4F3E36",
",. c #4C3B33",
"<. c #4E3F39",
"1. c #4F3F39",
"2. c #4D3E39",
"3. c #503D32",
"4. c #503E33",
"5. c #513F33",
"6. c #503D35",
"7. c #523F35",
"8. c #503E36",
"9. c #513F36",
"0. c #513E34",
"q. c #503F38",
"w. c #523F39",
"e. c #513F38",
"r. c #4E4034",
"t. c #4E4034",
"y. c #4E4039",
"u. c #524035",
"i. c #514037",
"p. c #534137",
"a. c #524237",
"s. c #544034",
"d. c #544237",
"f. c #534135",
"g. c #5A4334",
"h. c #584337",
"j. c #534038",
"k. c #544338",
"l. c #54433B",
"z. c #574538",
"x. c #56473E",
"c. c #54433A",
"v. c #584438",
"b. c #58453A",
"n. c #58463B",
"m. c #5B483D",
/* pixels */
"+.S S r q , , , , * * * * * & n y., , , * , * * % * # # # # # , s , , , * , * * # @ % # * * > &., d s , s * * * * % % % % % ..S ",
"S , , E &.y.&...n , * * * k , 7 S % % & # * % # # % @ @ # @ # , 4 , * * n n S , * % % % * , , S # % % % * % # % % # # % % % n n ",
"s.u.&.* p , % * % # % % @ @ % # +.q / &.&./ E E S S , , j S S &.S S # @ % # % @ @ @ @ @ $ @ # n S E &.&.O.&.S ....n n ..O.&.j.j.",
"g.v.x.* @ $ * $ @ @ O @ % @ O @ ^ t u./ 3./ r q 5 E E 5 5 E E E / t.# O @ @ @ O O O $ $ O O O n 8.u./ 8.8./ E S 2.S n O.q.j.s.z.",
"g.v.l., * , * % % * * * * * % % S q q 5 , , q , > , , , > , 5 E / / % # % % @ $ $ @ % % % $ # S , 5 S S 5 S , , , , 7 , 5 / j.l.",
"4 j j j 5 5 , s n , , , , &.5.3.E , * # @ @ , , % % % % % # : : : : , , , , , : u , , % n &./ S , > # @ @ s , * * * * , : , , 4 ",
"j ..O.j s s , , * % % % & &.8.8.&.....s , % s , , , , * % % , , , , , , , % % # # # # # S &.^ +.^ S , * * s s p , , , , , n n ..",
"* % % % % % s 8.3.3.8.8.E 5 5 , % % % % % # # # # @ @ @ @ @ # # @ @ @ # # : S q S S j 5 , , * % # % * % @ # @ @ % % $ # % * % % ",
"% $ % % % $ -.z.s.s.s.s.u./ S # O O O O # $ $ @ @ @ @ @ @ @ O O O O @ @ + j j.q t 8.8.E r S # X O X O @ @ @ @ @ $ $ $ $ $ @ $ $ ",
", , , % , # j 8.E q / q , q ..% @ @ % % % % % $ $ @ $ % % % % % % % @ # + ; S S 5 5 4 , 5 5 * @ @ # # # # % # # # % * , , * , , ",
"&.j.S 4 , , , % * , 4 : % % % , , * % % * , * % % % % , , j S S .., # % , % % % % % * # # % % , % * * * - - * * % % ..+.&.&.+.+.",
"&.8.j s s n +.n , % : : : : % , , , % % % % % # # # % &.O.S S S .., % , , s , % # % % $ % % : % % % % % % % % % # % 2.+.&.&.y.y.",
", , 4 % % * % % @ % j 4 4 4 5 q q E / E E S 5 , % % # , : : : % % % # # # @ + O @ , , , , s 5 5 q &.E ..S s , * % % , , , , , , ",
", , , , % % % % @ > z.8.8.8./ E / 8.s.z.s.8./ , , , , , , , , : % % % # @ @ @ O $ q.E E O.E S E 8.l.z.z.u./ q S j , , , , , , , ",
"> , , , , , , , % , &./ S q 5 q 5 q q q q , , , 4 , % % % % * % % % % % % % % $ % ..S S j , s j q S S ..j , j , , 4 , , , , , , ",
"* * p p * , +.S s , , * & % % % % & * * $ . o . . o O O @ % $ % % % % % , , , , , % % # # # % % # & * % o O o o o @ @ $ % % % % ",
"* * * * # , j.....n , , , , , , , n p p - O O @ @ $ % % $ $ $ $ % % # + % n , , , % , , , , p p , , p - O O O @ % % % - % % % % ",
"^ ^ ^ q , , , % % # @ @ @ @ @ @ @ % * , : d s , s , , , , , , , , , , * % % # # # @ @ @ @ @ $ $ % % * : 4 4 , S , j S s n ..S ..",
"E q q 1 , * % @ @ @ # # # % % % % , 4 , ; ; ; ; : : : , , , , , , , 4 % # $ O O O O O $ $ $ % % % % , % , , : , , , s s s n S S ",
", , / S j S , , , , , , % $ % , , % % : 4 4 , : : , 4 , % # # # : j 4 4 , % , % # % % % $ # % , * * : , , , , , , , p , , , * * ",
", j &.&.l.3.8.3.E &.n s % $ % % $ o O @ : , , , 4 4 , , , % % # : S , S 5 E E 5 E s * # # # $ @ o o X , , , , s , s , * , * % % ",
", 4 s l.O.E &.S S , , , $ , * % @ @ # # , , > , , % % , , , * % , , j S j s j , 4 , * # # % # @ @ @ # , 4 , , , , * , p , , , , ",
"% # % : % % % % @ # % , s ..&.E S E S / 3.u.3.q.j., + O O O O @ + + # # $ $ @ O $ # % , n S S S S S E 8.&.q.q.l.S # # # # # # % ",
"@ @ @ * * % % % % $ % % * , 4 , , 4 , , 5 E &.&.j.4 + @ o o @ @ + + $ % O @ @ @ $ $ # % * , % % , , 5 S E 8.j.z.S # # O @ @ @ $ ",
"* , n ..s } n .., % % % * , , % ; , , , , , , , S , : , % % * * , , p , , , p % @ $ # # % * % * % % , , , , S S , , , , , , * p ",
", , ^ ^ S 2.+.&., % % , , , , , 4 4 , , , 4 , , , S ..S 5 5 , , * s s s n 7 s , # % % , , , , , , , , , , , 5 j S &.&.....S s , ",
", , , , q s j j , % : : , , , , , , , , , , , , , , , , , , , % % # % * , , , , # % % % % % * , , , 4 , , , , j s , , , j j , , ",
"u.3.t / / / / / q j j q r / S % : : , , , , , , % % % % % % % % &.S , , q q q q , , , , q q % * , , , , 5 5 , % % * * , , : , x.",
"m.m.v.z.u.u.u.k.a.u.8.u.s.k.8., , : % , , , s s , % % % * , % , j.j.u.u./ w / u./ / 3.u.s.8.* * % % , , s S s * * * * * , % , l.",
"S S , , , , , , , , , , , q S % , : s % # # # % # @ # % % % % * s , , * , , , , , , , , q ^ % % % , , # # # % $ $ % % * % % , ..",
"# @ + O O O @ @ @ # % % > , q , , , p % O O O + + @ # # # # # # O O o . . X O + @ # # # * , , , , , % O O X O @ @ % * % # # # # ",
"- * * % % % * - % * * * , 7 q E S j ..* @ @ @ # # # # # # # # % % $ $ $ $ $ % % % % % * , n n , , , * O O @ @ @ $ @ $ % % # % % ",
"S S ..S , , , , % , , % % : q v.z.u.u.u.u./ 3.3.3., , , , , , , s n , * * * * # % % # % # , k.k.s.u.8.8./ / u.t.7 , 7 s p s } } ",
"4 4 , , % % % % * , , 4 d , q m.v.l.8./ / / / 3.3.> ; , & & , , % % # # # # # % % * * , : , z.s.u.u.8.&./ 3.u.r., , , , , , , , ",
"5 5 E E E / E S / S 8.E % : & , , , & % & , q t t q 5 5 q 5 q S , , , , , j j S S q q % % % , , , , , , , q r./ S S S S S S S S ",
"8.8.8.s.s.u.u.u.u.u.z.u.% % % # # # * * # # n t r / E r q q r / E E / / E / E E E 3.3.% $ % # # # % * % % 7 t./ / 8.8.q.u.8.8.8.",
"E E 3.E E E q E E / u./ , , , , , , * % * , n S S , 4 , 1 , , 5 q q q 5 5 , 5 S S t / , , , , , , , * * * n +.S S , S E S S E E ",
"S S j , , : % , &./ / 8.8.8.3.3.3.8.: % $ # $ % # # @ , S s , , , , , # # # % S j E E / 3.3.3.8.u., # % % % * $ % # 5 8.S S S S ",
"2...S S s , , s +.S q q 5 5 5 5 q 5 # # # # # % # # # s 2.......s s , , , # * ..S j , , 4 , , , j % $ % $ % % % % % s l.j.y.2.+.",
", , * % * , % % % # % s n , , , , , n , , , , , s S % # * % % * , % % % % % # % # # s s s * , , s s p , , s s S 2.* % p , , p p ",
"% % % % % % @ @ $ @ # p s n , # % , , , , , 7 n S +.# X O O @ @ $ @ @ @ @ O O O O @ * * p p # # * , q , , 5 q 8.j.* $ $ @ $ % % ",
"* * * p * * * * * % * p * , % , , & & , , , , , , , # O $ % $ $ # # % * # % % % % % * * * * , , , % , , , , , s d % $ % % % , * ",
"x.S , ^ , s s , , , % # % # # , S q 7 , 7 , , , , * % , p , , &.n * 7 , , s % * % % @ % % @ , S S S q q q , , , , * , , p } S S ",
"&., , , , , , , : % : # % % % , q 1 , , n +.+...s , , % , , , w , # , % , , % # # # # # # # , , 5 , , 7 / r.^ &.S , , , p } S S ",
"u.l.z.l.l.l.u.8.&./ / E / 8.8.l.u.s., @ % % % % % $ # $ $ % # , E r / E E E E E E E S s S O./ / u.q % # * , * % * % # % % % , j.",
"s.z.z.z.s.u.8.E E / / E E &.u.u.v.m., + @ # # # O # @ $ $ O + d 8./ u.3./ &.E 5 q S S 5 S 8.u.z.m.q @ @ $ % $ @ @ $ % % % @ s x.",
"/ S S S q q S q , , , , , , E 8.u.l., : , , % % % % * % # : % j / 5 q 5 , j , , 4 4 , , , , E u.z.5 % 4 : % % % * * , * * % , O.",
", , & # % # 7 , , & , , , , , , , , , , , , , , , , , , q u.8./ , , % # + % , , % % % % % , , , , , , , , , , s n n s , z.u.3.e ",
"y.y.+.n , * n +.s s , , , , n n n ..s , , , % % # % ; # , l./ u.+.+..., % , } , p * p , * , n n n n , , , > % % & * & , v.8.u.8.",
"* * * * % @ @ @ # # @ @ @ @ # # # # # # # : &./ 8.8.8.O.s 4 , # % % % % % $ $ O @ $ @ @ @ @ # # # # # # % 2.&.&.8.&./ O...s * * ",
"@ @ $ % % $ @ @ # @ # @ # @ @ $ @ $ # # # , j.3.u.u.u.8.&.8., X O o O @ @ @ @ @ + $ @ @ @ @ O @ @ $ $ $ % x.u.u.l.z.l.q.1...@ O ",
"% % % * * % % % % % % * , : % , 4 : % % % % S E E 5 5 , , j , + @ @ % % % % # # # # % * % % % , : # # % % ^ / S ^ &.S S +.S % % ",
"s s , , p , , , * * * n &.O.3.E 3.r , , , , % % % % , % % % % , * * * * * % % % % # 4 ..b j r E E > , , , , % % * , % % % , , , ",
", , , , , , , % % * * 2.2.&.8./ 3./ , , s S S p % % * % : : , : % % % % % % # % % # s &...O./ &.8., > , n n s * % * % * , , , * ",
"&.8.&.8.&.&.&., , * * , , , , , , * % % # # # # @ 7 , , , , q q S E &.E S s , % % # * * * * * , * & # # % % $ @ * n * p s ......",
"8.s.v.m.m.m.l.O.E S , , , , , , , , * * % # # @ O t.3./ &./ E S / u.s.s.z.&.q 5 , , , , , , , , , * , % % # # X S l.&.q.q.8.O.&.",
"S / &.8.&.+.n n s s , , , , , , , * * * , , > % # S &.&.S S S , 5 r E E S d d s p , * , , , , , , * * , s , % % ..j.2.&.&.O.O.O.",
", , , , * O O O . X # # # % % % , , , * % S q 7 , , * % % % % % % & , % @ O O o O + + # # % % * , , * % S ..s s , , , * % % , , ",
"n ^ n n , @ O @ $ % % * % % % % % , % @ # S / r S n * p 4 , 4 4 , 7 , , # O O @ @ % % % % % % % % % % # S &.S S S , , , n n n n ",
"* , , , , s d s b j s ..j s S S 7 S , , , * % # # % $ @ # % @ # % % * % * , , p s s s s , s S ..s s , , , , % % % % % % # % * * ",
", , , , 4 4 , 4 , , , , S , 7 S 7 7 , , # # @ @ O @ @ @ @ $ % * % % , , , , % % * , , , , , S E S j n , % $ @ # @ @ $ $ % % % * ",
"n s , , , , , , , , , , , , & * , 7 S , , , , * * * % * % % * * , , % , , , * % , , , , : : : , , j , 7 , , , : * * * * * * p k ",
"% @ O + , S , , j j S j 4 , , % , 2.&.q.&.O.q...&...s * $ % % % O O O % d , , , , s , , : , % % S q./ 3.E q.O.&.q.S , % % * % $ ",
"$ $ % # , , 4 4 , , , , , , s , , s O.j.O.O.&.S S , , # @ * $ @ O $ $ = p , % * , % , 4 , , , , , S 8.t 8.q.O.O.5 , , % * * % $ "
};
