/* XPM */
static char *anglj_kcvx6[] = {
/* columns rows colors chars-per-pixel */
"64 64 237 2 ",
"   c #2B1C16",
".  c #2B1E19",
"X  c #201212",
"o  c #29190E",
"O  c #2A2015",
"+  c #362B2B",
"@  c #4B3D3B",
"#  c #493733",
"$  c #523B36",
"%  c #533C3A",
"&  c #583A38",
"*  c #583A2B",
"=  c #643E3A",
"-  c #683E36",
";  c #713D31",
":  c #4D423E",
">  c #59413A",
",  c #6C433C",
"<  c #66423A",
"1  c #72453D",
"2  c #78453A",
"3  c #78523F",
"4  c #6D3F44",
"5  c #4E4341",
"6  c #594445",
"7  c #5C5250",
"8  c #6C4441",
"9  c #6D4A43",
"0  c #674946",
"q  c #724542",
"w  c #734B44",
"e  c #7C4C42",
"r  c #754D4A",
"t  c #784949",
"y  c #6C524D",
"u  c #69524A",
"i  c #7D5145",
"p  c #75534C",
"a  c #7B544B",
"s  c #76584B",
"d  c #6B5553",
"f  c #7C5553",
"g  c #7C5B54",
"h  c #735C5A",
"j  c #7C5C5A",
"k  c #745754",
"l  c #764B51",
"z  c #7E6159",
"x  c #7E5C61",
"c  c #7C6563",
"v  c #787377",
"b  c #666268",
"n  c #844C3D",
"m  c #8A4E3C",
"M  c #80473B",
"N  c #924F3B",
"B  c #8C513E",
"V  c #86533F",
"C  c #94543E",
"Z  c #9B543D",
"A  c #9D573D",
"S  c #A35A3E",
"D  c #A7593B",
"F  c #AB603F",
"G  c #834D42",
"H  c #8A4D42",
"J  c #864746",
"K  c #845244",
"L  c #8C5344",
"P  c #83554C",
"I  c #8B554B",
"U  c #8D5A4D",
"Y  c #895949",
"T  c #935343",
"R  c #995641",
"E  c #945A44",
"W  c #9B5B44",
"Q  c #925549",
"!  c #935A4C",
"~  c #9B5C4B",
"^  c #98564D",
"/  c #835552",
"(  c #835B54",
")  c #8C5C53",
"_  c #835D5B",
"`  c #8C5E59",
"'  c #895553",
"]  c #935D53",
"[  c #9A5D52",
"{  c #935E5A",
"}  c #945853",
"|  c #944F43",
" . c #A45C43",
".. c #A45E48",
"X. c #A25B51",
"o. c #9B614C",
"O. c #95604E",
"+. c #82625C",
"@. c #8A6257",
"#. c #936155",
"$. c #9B6254",
"%. c #95635B",
"&. c #9B645B",
"*. c #9D695C",
"=. c #926956",
"-. c #8E6148",
";. c #AC6244",
":. c #A5624B",
">. c #AA644A",
",. c #AC6A4C",
"<. c #A56445",
"1. c #B2694A",
"2. c #A36453",
"3. c #AC6A53",
"4. c #A1665B",
"5. c #A46A5C",
"6. c #AB6B5B",
"7. c #A96755",
"8. c #B16C56",
"9. c #AB715B",
"0. c #B5735C",
"q. c #B67458",
"w. c #825E61",
"e. c #856261",
"r. c #8A6866",
"t. c #946562",
"y. c #9C6B63",
"u. c #996B67",
"i. c #8D736B",
"p. c #9E726B",
"a. c #9D7064",
"s. c #897979",
"d. c #9D7872",
"f. c #946C70",
"g. c #A46D62",
"h. c #A96E62",
"j. c #A06866",
"k. c #A47165",
"l. c #AA7365",
"z. c #A3736B",
"x. c #AB776B",
"c. c #B47563",
"v. c #B87A65",
"b. c #A67673",
"n. c #B47D77",
"m. c #C07963",
"M. c #8D847E",
"N. c #978278",
"B. c #A3827D",
"V. c #B68074",
"C. c #74798C",
"Z. c #8A7D82",
"A. c #7D8190",
"S. c #8D8385",
"D. c #968C8D",
"F. c #998E8E",
"G. c #948685",
"H. c #9B928D",
"J. c #9D9184",
"K. c #838795",
"L. c #9A8F90",
"P. c #968E93",
"I. c #9D9393",
"U. c #9A999C",
"Y. c #A58985",
"T. c #A6928C",
"R. c #A09794",
"E. c #A39B9A",
"W. c #A39A96",
"Q. c #AB8E90",
"!. c #ABA29D",
"~. c #A5A39C",
"^. c #B0A29F",
"/. c #9498A5",
"(. c #A79EA1",
"). c #9FA2AD",
"_. c #ACA2A4",
"`. c #AAA8A7",
"'. c #B6ACAA",
"]. c #BCB3AE",
"[. c #B4B1AC",
"{. c #AAADBA",
"}. c #A6AAB6",
"|. c #B2AFB4",
" X c #ADB1BA",
".X c #B4B2B4",
"XX c #BCB3B2",
"oX c #B4B4BC",
"OX c #BAB8B9",
"+X c #C1B5B5",
"@X c #C4BCBC",
"#X c #C9BEBD",
"$X c #C2B8B7",
"%X c #C9C2BD",
"&X c #C7C1BE",
"*X c #B7B9C5",
"=X c #ADB1C1",
"-X c #C6BFC5",
";X c #BBC2D0",
":X c #CBC3C2",
">X c #CCC6C9",
",X c #CECACB",
"<X c #C7C4C7",
"1X c #D0C6C4",
"2X c #D2CAC5",
"3X c #D3CDCC",
"4X c #D8CECC",
"5X c #D1C7C8",
"6X c #D9D1CE",
"7X c #CDCBD2",
"8X c #D3CFD3",
"9X c #D8CED1",
"0X c #D5D2D4",
"qX c #DBD4D4",
"wX c #DDD9D5",
"eX c #D5D4D9",
"rX c #DAD6DA",
"tX c #DCDADB",
"yX c #D7D8DB",
"uX c #CDD3DB",
"iX c #E2DBD6",
"pX c #E3DDDC",
"aX c #E3D8D9",
"sX c #DDE0DD",
"dX c #E5E1DD",
"fX c #E8E1DF",
"gX c #DCDCE1",
"hX c #D4D4E0",
"jX c #E3DEE1",
"kX c #E6DEE5",
"lX c #E5E1E3",
"zX c #E9E3E4",
"xX c #E5E4EB",
"cX c #E9E5E9",
"vX c #E7E9E7",
"bX c #E6E8F2",
"nX c #DFE0E3",
/* pixels */
"M.G.D.D.I.I.I.I.L.L.I.I.I.L.I.I.I.I.I.I.I.I.I.I.I.I.I.I.L.L.F.F.L.H.H.H.H.F.H.R.R.R.R.R.R.R.R.R.R.R.R.R.R.R.I.I.I.I.I.I.E.W.I.I.",
"!.1X$XR.I.R.I.I.I.I.I.I.L.L.F.L.I.F.L.F.F.F.F.F.F.F.F.F.F.D.D.F.F.F.H.H.H.D.H.H.H.H.H.H.H.H.H.H.H.H.I.I.I.I.I.I.R.I.R.E.W.R._.5X",
"2X4X#X+X'.XXXXXXXXXXXXXXXXXXXXXXXXXXXXXXXXXXXXXXXXXXXXXXXXXXXX.X[.'.[.].].].].].XXXX].].].[.].].].].XXXXXX+X$X$X+X$X+X+XXX].1X4X",
"4X4X#X@XqXaX4X5X:X#X@X:X:X:X&X&X&X:X:X:X:X:X&X#X#X&X:X:X&X&X&X&X&X&X%X%X&X&X&X&X%X%X&X%X&X%X%X%X&X%X&X&X:X#X#X@X#X:X>XqXaX6X1X2X",
"qX3X$X@X9XqX5XXX$X@X@X@X@X@X$XOXXXXXXX].].[.].].XX].].].XX].].].].XXXXXXXXXXXXXXXXXXXX[.].].[.[.].[.].].].[.'.'.]._.].4X6X4X2X4X",
">X3X$XXX>X4X:X@X>XE._.(._._._._._.!.!.!.!.!.!.!.!.!.!.!._._._.(.(.(.(.(._._._.!.!.!.!.!.!.!.E.W.E.W.W.W.E.!.!.R._.qX3X3X1X1X&X1X",
"4XqX:X:X4XaX5X:X>X+ + # # @ @ @ : : : : : : : : : : : : 5 5 5 : @ : 5 5 5 5 5 : : : : : : : : : @ @ @ @ : @ @ + G.iX4X6X6X2X2X4X",
"6XqX>X:X8XaX4X3X>X. X o o o                               . . .   O O O O O         .         . . .   . .   o + XXqX6XqXqX4X6X6X",
"qXpXqX3X0XqX4X8X8X# # @ 7 6 6 6 6 6 6 6 % % % % % % % % % % $ $ h % % % % % % % % % & $ $ # # $ $ $ $ % @ * * u :XqXqXqXqX4X6XiX",
"iX'.E.qX<XqX0X,X4Xu y y i._ ` @.( e.e.e.e.e.w.w.w.e.w.j p a e / i.f U P a / g g g g f f f f g p 1 e 2 r j a K i.1XqXqXqXqX6X6XD.",
"pXE.I.rX<XrXrX,X6Xy s s =.5.c.c.9.p.z.z.p.p.p.z.z.p.z.u.&.5.6.g.f.p.c.k.%.u.u.t.t.t.t.t.t.t.t.%.$.$.3.$._ ' ) d.3XqXqXaXqX6XqXv ",
"iX5X4X0X>XtX0X8XqXk p z r.g.c.v.b.d.b.b.z.z.z.b.b.b.b.b.p.c.v.z.f.z.n.n.p.d.d.b.b.b.b.b.z.z.p.u.y.5.v.5.f z } N.4XaXqXaXqXqXqX$X",
"iX1X6X0X>XtX0X0XqXh p i.e.z.v.v.Y.h 0 y y w w w 9 9 0 +.d.v.v.p.r.p.V.n.x.e , w q q w q q q , ' *.5.c.*._ N.I N.3XaXqXaXqXqXqX@X",
"iX1XqXqX,XtXyX0XqXh p i.w.j.v.v.n.` t.j.j.y.y.y.y.u.%.t.p.c.v.p.r.p.x.x.z.] ] #.%.#.#.%.#.{ ) ` $.3.q.*.w.i.Q d.4XaXqXaXqXqXwX@X",
"iX4XqXqX3XtXtX0XaXh p r.x z.V.0.x.y.z.x.x.l.x.x.z.z.y.u.u.c.v.u.r.u.l.l.k.*.g.l.l.h.h.x.g.j.y.%.$.3.q.&._ d.I N.4XaXaXaXqXqXiX&X",
"iX4XqXqX0XtXtX0XaXk w f e.j.m.0.x.u.z.x.l.l.l.l.l.k.k.u.y.0.c.u.e.y.c.k.z.%.k.k.k.g.5.5.5.5.y.%.#.7.q.=./ g P d.4XqXtXtXtXtXaX:X",
"pX4XqXqX0XtXtX0XaXh w a +.y.v.c.z.y.k.l.9.9.l.l.k.k.j.y.t.0.c.t.w.y.c.k.y.%.g.k.l.g.g.5.5.5.y.*.#.5.0.=./ f I B.4XqXtXtXtXtXaX:X",
"pX1XwXqX0XjXtX0XaXh w a _ y.0.c.k.&.g.5.6.0.5.5.5.g.y.y.t.6.c.t.x y.c.y.y.#.g.g.h.l.l.g.5.*.*.y.] 5.q.#./ f U B.4XpXqXtXtXtXaX<X",
"iX2XwXqX0XjXtX0XaXc r a _ *.q.0.k.&.g.6.6.6.5.4.*.g.y.%.#.6.0.t.x y.c.j.y.#.*.5.5.g.5.4.4.$.&.&.! 7.8.#./ P I B.6XiXwXtXtXtXpX<X",
"dX2XpX0X8XjXpXqXtXh w r _ &.q.q.a.%.g.6.6.5.5.5.g.g.y.%.] 8.0.t.j y.c.x.y.%.*.5.5.h.4.$.5.$.&.*.! 7.3.] / ' Y J.4XiXiXpXtXtXpX:X",
"dX3XpXqX0XjXpXrXpXh 9 r _ &.q.q.a.%.5.6.6.5.5.5.g.g.*.%.#.8.0.t.j &.c.l.*.$.5.5.5.5.$.4.5.$.&.&.! 7.3.] / P P Y.4XiXiXiXtXpXpX:X",
"dX6XpXqX0XlXaXqXpXh 9 r g &.q.8.a.#.5.6.6.5.5.5.5.5.&.%.) 3.0.%.j &.0.5.&.$.6.5.4.$.&.5.$.$.&.] ! 7.3.] f P P J.4XiXiXpXpXpXpX,X",
"dX3XjXrX0XlXpXtXpXh , w a =.q.q.*.#.*.5.5.7.5.*.*.*.&.%.) 3.0.%.f &.0.6.&.[ 5.5.5.&.&.$.$.O.%.%.! 2.3.! p P K B.qXpXaXpXpXpXpX,X",
"dX3XjXrX0XlXtXtXjXh , w a =.q.q.&.) *.5.2.2.&.%.%.&.&.{ ` 6.3.%.f #.9.5.] ^ 7.5.4.&.&.$.$.2.$.] ! $.3.! f P K B.qXaXtXpXpXpXpX>X",
"dX3XtXrX0XlXpXtXlXh , w a #.q.,.*.] %.&.&.&.&.{ { &.{ { ) 7.8.{ l #.9.*.%.U 4.&.&.&.&.&.&.j.{ { ] ~ ,.! p a K Y.qXpXtXpXpXpXjX,X",
"dX3XtXrX0XlXpXtXlXh , w p #.8.,.U ) @.@.=.=.@.` @.` ` ` ' 7.8.] r $.q.&.P P ' P / / ( ( / f f P L :.,.I r i i Y.rXjXaXpXpXpXjX,X",
"iXqXtX0XrXxXsXtXzXh 8 w r O.1.3.#.] $.$.#.#.$.$.&.&.&.&.] 6.6.] l #.3.5.! &.$.&.&.&.&.&.&.o.$.I L 3.>.L r i e Y.jXjXpXpXjXpXpX5X",
"pXqXtX0XrXxXsXtXzXh 8 w r O.1.3.&.g.h.h.g.g.h.h.h.h.h.5.4.6.6.] l ) 3.5.[ g.g.5.6.6.h.h.h.6.g.*.~ :.>.Y a i e Y.jXjXpXpXjXpXpX5X",
"pX3XqX0XrXlXsXyXzXh 9 w r ! 1.,.#.&.&.&.%.&.&.&.&.&.y.%.[ 6.6.] l ) 8.2.{ { ` #.#.#.] ) ) ) ) #.E :.,.Y p e i Y.jXpXiXpXjXjXpX3X",
"iX5X0X8XrXlXsXtXzXh 9 w r ! 1.>.&.a - 1 1 1 q w q q - / ] ~ 7.] r ) 3.2.y.q , 1 , , , , , ; - e Q  .>.I r i G Y.tXpXwXpXjXjXlX4X",
"iX3X6X0XrXlXpXtXzXh 9 y p [ ,.:.[ I $.o.$.#.#.$.~ ~ [ ] ) ~ 6.#.r } 3.2.[ T $.$.4.4.[ [ 4.X.o.! } ~ >.! t s J G.pXaXwXdXlXjXpX0X",
"iX3X6X0XtXlXpXtXzXh 9 +.9 ! ,.:.[ L 2.X.2.$.$.$.2.X.~ ] U ~ 6.#.r } 3.2.[ L o.$.[ $.[ [ [ ~ E I I ~ ,.Q t i.J Y.jXpXiXdXlXjXpXqX",
"pX3X6XqXrXlXpXrXkXh 9 g , ! ,.:.[ T :...:.[ $.2.:.:.~ ] U X.8.] t } 3.2.[ L O.$.[ [ ~ [ [ ~ o.U I W <.Q l i.J T.tXpXiXdXjXjXpXqX",
"iX3XqX0XtXlXpXqXjXh 9 +., Q 1.:.[ L 2...X.~ $.2.2.2.o.[ I [ 8.] t Q 3.$.! L o.$.] [ ! $.! ~ ~ Q T W <.Q t i.2 Y.pXpXpXdXlXpXlXqX",
"pX3XrX0XtXxXtXyXlXh 9 , 9 L 1...U K [ X.X.! ! o.o.o.E Q L ^ ,.[ l T 3.~ U L ~ W W W W W E E Q T T ..<.| 9 a e J.pXpXaXzXzXpXlXtX",
"pX4XtX0XgXcXtX0XpXh 9 , 9 L 1. .] P I ] ! ! ! } } U } I I ~ ,.[ t L >.[ ] K I ) U ] U U U ! K I Q  .>.| 9 w G Y.pXpXaXzXlXpXlXaX",
"dX0XtX0XgXxXtX0XjXh 9 , w L 1. .K ' ) ) U U U U U I ) I G [ ,.[ q B >.2.I P a a a P a a P ' P P M  .>.T 9 w G Y.lXlXpXzXpXlXlXpX",
"fX0XtX0XgXxXtXeXlXk , , q L ;. .I E ~ o.~ ~ ~ W W W o.~ L :.1.} 8 L ;.>.Q I m C T T T T T Q E L m  .1.L q 9 2 Y.lXlXjXzXlXlXpXpX",
"fX0XtX0XlXcXjXtXlXk , , q L ;.<.] 7.7.7.7.7.7.7.7.7.3.7.! S 1.] , K <. .! y.5.4.4.4.&.&.4.7.o.] I W 1.K q w 1 Y.lXlXjXlXlXjXpXjX",
"dX0XtXrXlXcXjXtXlXh , , , L ;.<.I $.$.&.$.$.$.$.$.$.$.$.L S >.] - ( p.o.U ( P P ) ) ) P ' ' K I I W F V q 9 1 Y.lXjXjXvXlXpXjXpX",
"dX0XtXeXlXcXjXtXzXd , , , L ;.A I 2 ; 2 2 2 2 2 2 2 ; e K S ;.I - c S.a.y.e ; 2 2 2 2 2 2 ; ; 2 H S D V q w 1 T.lXjXlXcXlXpXjXpX",
"dX0XtX0XkXcXtXyXcXd , , , I ;.S L J ^ T T L L Q Q Q T L G A ;.I - j s.2 2 K C A ~ E T T R T Z L G Z D B 8 w , Y.jXjXjXvXlXpXdXpX",
"dXqXtXqXkXcXsXyXcXd < , = L ;. .H H ~ R W Q T T Q Q T L G A ;.I - P 6.Z m L C W ..~ T R Z T Z T G Z D m 8 1 , T.jXjXlXvXlXpXpXpX",
"dXqXtXrXgXcXsXgXcXd - , = L ;. .H H ~ R R Q T T T Q T L G A ;.I - L ;.D T I  . .~ E L C R R Z T G R D n 8 , - T.lXpXlXvXlXlXpXdX",
"dXqXtXrXgXvXsXgXlXu , , = L ;. .H H ~ R C T L C T T T L e S ;.I - L ;.Z L L W S W E L C R T Z L G R S n 8 , - T.jXlXlXcXxXlXpXdX",
"iXqXrXeXnXvXsXgXzXd < < = L ;. .G H ~ T T I L T T T B K e A ;.Q - B  .C m m C A A Q L T T C C L e R  .M < , = Q.kXcXlXcXxXjXdXdX",
"iXqXtXrXlXvXtXtXkXu < = = L ;. .G H ~ T L L L T T T L n 1 A ;.Q - B  .T m B Z  .R L H H H C N H G C  .n < , , Q.jXcXlXlXcXlXdXlX",
"iXqXtXrXlXvXtXtXjXu < = = m ;. .G H ~ R T G L T N T L n e A ;.Q - m  .T m C Z  .R T L L H m N n G C S M = , , Q.pXzXlXlXvXlXlXlX",
"wXqXrXrXlXvXtXtXlXu > < = n  .W G n ~ R T K G L m C T V 2 C  .W , L  .T m m R W E L K H m N N n G Z D 3 = < , Q.pXlXdXdXlXlXlXjX",
"qXqXrXeXlXxXtXtXdX7 > & & K  .W 2 M E T L K e K m C B K 2 T ;.W 1 L  .Q n m Q R T K G n m N C V e R D i 4 0 = Q.tXpXpXpXpXdXpXpX",
"wXqXrXeXlXxXtXtXlX7 $ k & i  .W e e I I K i a K L L L G 2 T  .C , K ~ L 2 M T T L I P G L T C G e T S i 0 z = T.rXpXpXpXpXpXtXwX",
"%XaXrXeXlXvXlXlXlX7 > y & i W E w q G G e r r e G L K K 3 L W C , K W I G 3 G m M K i 2 G H m e r T A 3 0 c & T.tXcXlXlXlXlXpXtX",
":X3X8X>XgXxXtXtXjX6 % y & G o.-.1 w a a a a P P P I K P e Q W L < a E K e i ( ) ) ` ( ( ' ` ( p 2 | W n < c % T.qXlXtXrXgXrXrXrX",
"4X4X0X0XlXlXlXlXrX6 $ > < e C -.w 9 p g s g f ( g f f r 9 P Q P 9 p Y a 9 p j g g z g g g f g p 9 K L G , k > N.:XtXtXtXgXtXpXpX",
":X4XaXrXgXtXtXgX3X6 > > 0 9 Y @.+.z z +.z g j j j j j +.e.e.@.p p p e.+.j k k f / ( ( ( / s g j z z ( , 9 = % N.@X8X0XeXeX0XrXqX",
"5X4X8X0X8X0X0XyX3X7 # > > 0 g +._ _ +.+.+._ +.+.+.+.+.+.c e.w.p p 9 j g g g f f / ( ( / f g g j g k g 0 8 < & M.5X8X8X8XeX8X3X3X",
"XX2X2X3X3X4X3XeX,X7 # > 6 0 _ _ @.e.e.e.r.r.e.r.r.r.r.r.r.r.r.k k y +.j j _ _ _ _ +.+.+.+.z z z z g g 0 9 < > s.$X-X#X@X-X5X,X>X",
"^.].+X$X#X#X-X>XOX6 # # $ & k g g z z +.+.k g ( ( ( ( +.e._ j 0 0 > h k k k k d d d d u u u y y y u u & & & # c E.'.'.'.+X+X+X$X",
"I.'.(.(._._._.U.7 b v v s.s.s.M.G.S.S.S.S.S.S.G.G.G.Z.s.s.Z.S.Z.Z.S.S.S.S.S.G.G.S.M.s.s.S.M.s.s.s.s.s.s.s.s.s.G.D.Z.b P.U._.E.(.",
"oXoX*XoXoXoXoX XU.uXgXxXkXgXgXnXlXgXjXcXcXcXxXxXbXxXxXbXbXbXbXbXbXxXxXxXxXkXkXkXjXtXtXtXtXpXtXqXqXqX0XqX0X9X4X8X<XOXU.*XoXoX*X*X",
"*X;X;X*X*X*X*X*XeXgXhX7X7X7X7X0XeXeX0XeXeXtXyXeX0X0X,XqX0X8X0X8X,X0XeX8X7X7X0X7X7X,X<X@X@X$X$X$X+X].].].].].].].+X].XXXXXX*X*X-X",
"*X{.}.{.*X{.}.}.|.OX<X*X<X<X*X*X-X-XoX.XOXOX<X*X*XOX[.[.].'.XX'._.[..X.XOXoX.X.X.X`.[.(.U.R.I.H.J.T.T.G.G.F.G.G.J.N.J.M.M.`.{.*X",
"A.K./.K.K.A.C.K._.`.oXoX|.|.|.}..X.XoX.XoX.XoXoXoX.XOXXX[..X.X[.[.`..X[..X.X[.`.`.`.`.`.`.`._.~.~.~._.E.E._._.E.E.E.U.U.U.v C.K.",
"C.C.C.C.C.C.A.K.{.).}.{.}.=X{.}.{.}.{.{.{.{.=X=X X{.{.{.{.).).}. X{.}. X X{. X X}.}.{. X{.{.}.{.}.}.}.}.).}.{.}.}.{.}.=X=X/.A.C."
};
