/* XPM */
static char *result[] = {
/* columns rows colors chars-per-pixel */
"64 64 5 1 ",
"  c black",
". c #796D00",
"X c red",
"o c white",
"O c None",
/* pixels */
"OOOOOOOOOOOOOOOOOOOOOOOOOOOOOOOOOOOOOOOOOOOOOOOOOOOOOOOOOOOOOOOO",
"OOOOOOOOOOOOOOOOOOOOOOOOOOOOOOOOOOOOOOOOOOOOOOOOOOOOOOOOOOOOOOOO",
"OOOOOOOOOOOOOOOOOOOOOOOOOOOOOOOOOOOOOOOOOOOOOOOOOOOOOOOOOOOOOOOO",
"OOOOOOOOOOOOOOOOOOOOOOOOOOOOOO    OOOOOOOOOOOOOOOOOOOOOOOOOOOOOO",
"OOOOOOOOOOOOOOOOOOOOOOOOOOO         OOOOOOOOOOOOOOOOOOOOOOOOOOOO",
"OOOOOOOOOOOOOOOOOOOOOOOOOO             OOOOOOOOOOOOOOOOOOOOOOOOO",
"OOOOOOOOOOOOOOOOOOOOOOOO                OOOOOOOOOOOOOOOOOOOOOOOO",
"OOOOOOOOOOOOOOOOOOOOOOOO      ....      OOOOOOOOOOOOOOOOOOOOOOOO",
"OOOOOOOOOOOOOOOOOOOOOO        ....        OOOOOOOOOOOOOOOOOOOOOO",
"OOOOOOOOOOOOOOOOOOOOOO                    OOOOOOOOOOOOOOOOOOOOOO",
"OOOOOOOOOOOOOOOOOOOOOO                    OOOOOOOOOOOOOOOOOOOOOO",
"OOOOOOOOOOOOOOOOOOOOOO                    OOOOOOOOOOOOOOOOOOOOOO",
"OOOOOOOOOOOOOOOOOOOO          oooo          OOOOOOOOOOOOOOOOOOOO",
"OOOOOOOOOOOOOOOOOOOO          oooo          OOOOOOOOOOOOOOOOOOOO",
"OOOOOOOOOOOOOOOOOOOO        oooooooo        OOOOOOOOOOOOOOOOOOOO",
"OOOOOOOOOOOOOOOOOOOO        oooooooo        OOOOOOOOOOOOOOOOOOOO",
"OOOOOOOOOOOOOOOOOOOO      oooooooooooo      OOOOOOOOOOOOOOOOOOOO",
"OOOOOOOOOOOOOOOOOOOO      oooooooooooo      OOOOOOOOOOOOOOOOOOOO",
"OOOOOOOOOOOOOOOOOOOOOOOOOOoXXXXooXXXXoOOOOOOOOOOOOOOOOOOOOOOOOOO",
"OOOOOOOOOOOOOOOOOOOOOOOOOOoXXXXooXXXXoOOOOOOOOOOOOOOOOOOOOOOOOOO",
"OOOOOOOOOOOOOOOOOOOOOOOOOOooooooooooooOOOOOOOOOOOOOOOOOOOOOOOOOO",
"OOOOOOOOOOOOOOOOOOOOOOOOOOooooooooooooOOOOOOOOOOOOOOOOOOOOOOOOOO",
"OOOOOOOOOOOOOOOOOOOOOOOOOOoooo....ooooOOOOOOOOOOOOOOOOOOOOOOOOOO",
"OOOOOOOOOOOOOOOOOOOOOOOOOOoooo....ooooOOOOOOOOOOOOOOOOOOOOOOOOOO",
"OOOOOOOOOOOOOOOOOOOOOOOOOOOOooooooooOOOOOOOOOOOOOOOOOOOOOOOOOOOO",
"OOOOOO  OOOOOOOO.OOOOOOOOOOOooooooooOOOOOOOOOOO.OOOOOOOO  OOOOOO",
"OOOOOO  OOOOOOO   OOOOOOOOOOOOooooOOOOOOOOOOOO   OOOOOOO  OOOOOO",
"OOOOOO  OOOOOO     OOOOOOOOOOOooooOOOOOOOOOOO     OOOOOO  OOOOOO",
"OOOOOO  OOOOO       OOOOOOOOOOooooOOOOOOOOOO       OOOOO  OOOOOO",
"OOOOOO  OOOO         OOOOOOOOOooooOOOOOOOOO         OOOO  OOOOOO",
"OOOOOO  OOO           OOOOooooooooooooOOOO           OOO  OOOOOO",
"OOOOOO  OO             OOooooooooooooOOOO             OO  OOOOOO",
"OOOOOO                  oooooooooooooooo                  OOOOOO",
"OOOOOO                  oooooooooooooooo                  OOOOOO",
"OOOOOOOOOOOOOOOOOOOOOOooooooooooooooooooooOOOOOOOOOOOOOOOOOOOOOO",
"OOOOOOOOOOOOOOOOOOOOOOooooooooooooooooooooOOOOOOOOOOOOOOOOOOOOOO",
"OOOOOOOOOOOOOOOOOOOOOOooooo....o....ooooooOOOOOOOOOOOOOOOOOOOOOO",
"OOOOOOOOOOOOOOOOOOOOOOooooo....o....ooooooOOOOOOOOOOOOOOOOOOOOOO",
"OOOOOOOOOOOOOOOOOOOOOOooooooooooooooooooooOOOOOOOOOOOOOOOOOOOOOO",
"OOOOOOOOOOOOOOOOOOOOOOooooo....o....ooooooOOOOOOOOOOOOOOOOOOOOOO",
"OOOOOOOOOOOOOOOOOOOOOOooooo....o....ooooooOOOOOOOOOOOOOOOOOOOOOO",
"OOOOOOOOOOOOOOOOOOOOOOooooooooooooooooooooOOOOOOOOOOOOOOOOOOOOOO",
"OOOOOOOOOOOOOOOOOOOOOOooooo....o....ooooooOOOOOOOOOOOOOOOOOOOOOO",
"OOOOOOOOOOOOOOOOOOOOOOooooo....o....oooooOOOOOOOOOOOOOOOOOOOOOOO",
"OOOOOOOOOOOOOOOOOOOOOOOoooooooooooooooooOOOOOOOOOOOOOOOOOOOOOOOO",
"OOOOOOOOOOOOOOOOOOOOOOOOooooooooooooooooOOOOOOOOOOOOOOOOOOOOOOOO",
"OOOOOOOOOOOOOOOOOOOOOO      OOOOOOOO      OOOOOOOOOOOOOOOOOOOOOO",
"OOOOOOOOOOOOOOOOOOOOOO      OOOOOOOO      OOOOOOOOOOOOOOOOOOOOOO",
"OOOOOOOOOOOOOOOOOOOOOO      OOOOOOOO      OOOOOOOOOOOOOOOOOOOOOO",
"OOOOOOOOOOOOOOOOOOOOOO      OOOOOOOO      OOOOOOOOOOOOOOOOOOOOOO",
"OOOOOOOOOOOOOOOOOOOOOO      OOOOOOOO      OOOOOOOOOOOOOOOOOOOOOO",
"OOOOOOOOOOOOOOOOOOOOOO      OOOOOOOO      OOOOOOOOOOOOOOOOOOOOOO",
"OOOOOOOOOOOOOOOOOOOOOO      OOOOOOOO      OOOOOOOOOOOOOOOOOOOOOO",
"OOOOOOOOOOOOOOOOOOOOOO      OOOOOOOO      OOOOOOOOOOOOOOOOOOOOOO",
"OOOOOOOOOOOOOOOOOOOOOO      OOOOOOOO      OOOOOOOOOOOOOOOOOOOOOO",
"OOOOOOOOOOOOOOOOOOOOOO      OOOOOOOO      OOOOOOOOOOOOOOOOOOOOOO",
"OOOOOOOOOOOOOOOO            OOOOOOOO            OOOOOOOOOOOOOOOO",
"OOOOOOOOOOOOOOOO            OOOOOOOO            OOOOOOOOOOOOOOOO",
"OOOOOOOOOOOOOOOO            OOOOOOOO            OOOOOOOOOOOOOOOO",
"OOOOOOOOOOOOOOOOOOOOOOOOOOOOOOOOOOOOOOOOOOOOOOOOOOOOOOOOOOOOOOOO",
"OOOOOOOOOOOOOOOOOOOOOOOOOOOOOOOOOOOOOOOOOOOOOOOOOOOOOOOOOOOOOOOO",
"OOOOOOOOOOOOOOOOOOOOOOOOOOOOOOOOOOOOOOOOOOOOOOOOOOOOOOOOOOOOOOOO",
"OOOOOOOOOOOOOOOOOOOOOOOOOOOOOOOOOOOOOOOOOOOOOOOOOOOOOOOOOOOOOOOO",
"OOOOOOOOOOOOOOOOOOOOOOOOOOOOOOOOOOOOOOOOOOOOOOOOOOOOOOOOOOOOOOOO"
};