/* XPM */
static char *a4got_fs0c8[] = {
/* columns rows colors chars-per-pixel */
"64 64 187 2 ",
"   c #9E5B3D",
".  c #A25537",
"X  c #A25B37",
"o  c #A15739",
"O  c #A25C3E",
"+  c #AB5E3D",
"@  c #B15E3E",
"#  c #9E603F",
"$  c #A4603F",
"%  c #AD603F",
"&  c #B3613F",
"*  c #965D44",
"=  c #9D5E42",
"-  c #975F49",
";  c #9A5F49",
":  c #A25E41",
">  c #A95F41",
",  c #A05F4A",
"<  c #B15F40",
"1  c #8F634E",
"2  c #976046",
"3  c #9D6146",
"4  c #95644E",
"5  c #9C634B",
"6  c #97684F",
"7  c #9E684F",
"8  c #8E6452",
"9  c #8E6857",
"0  c #8E6D5D",
"q  c #956653",
"w  c #9B6651",
"e  c #946955",
"r  c #9C6A54",
"t  c #916659",
"y  c #936C5C",
"u  c #9B6D5A",
"i  c #8E705F",
"p  c #95705F",
"a  c #9C715D",
"s  c #A36245",
"d  c #AC6344",
"f  c #A36847",
"g  c #AF6847",
"h  c #A3654B",
"j  c #AB6649",
"k  c #A4694E",
"l  c #AC6A4C",
"z  c #B26545",
"x  c #B16847",
"c  c #B86945",
"v  c #B26749",
"b  c #B36B4C",
"n  c #B86B4C",
"m  c #B1704F",
"M  c #A16751",
"N  c #A86651",
"B  c #A46B53",
"V  c #AB6C52",
"C  c #A36E59",
"Z  c #AB6F58",
"A  c #B36D51",
"S  c #B96E52",
"D  c #A67156",
"F  c #AC7155",
"G  c #A4725C",
"H  c #AB735C",
"J  c #A7785E",
"K  c #AC785F",
"L  c #B37255",
"P  c #BA7153",
"I  c #B3745A",
"U  c #BA775C",
"Y  c #B1795E",
"T  c #B9785D",
"R  c #8D6D61",
"E  c #8D6F68",
"W  c #936E61",
"Q  c #986F61",
"!  c #8E7264",
"~  c #84756B",
"^  c #8E746B",
"/  c #8E796C",
"(  c #937264",
")  c #9A7464",
"_  c #9C7866",
"`  c #94756A",
"'  c #9A766A",
"]  c #94796C",
"[  c #9B7B6C",
"{  c #8C7670",
"}  c #8D7C74",
"|  c #8E7E78",
" . c #937C73",
".. c #9C7E72",
"X. c #937E79",
"o. c #9B7F78",
"O. c #A37563",
"+. c #AA7662",
"@. c #A47965",
"#. c #AE7A66",
"$. c #AB7D66",
"%. c #AE7D64",
"&. c #AB7A63",
"*. c #A17769",
"=. c #A77E6B",
"-. c #A27D6F",
";. c #A47C6B",
":. c #AB7D68",
">. c #A87B6D",
",. c #AA7D6B",
"<. c #B57560",
"1. c #B07560",
"2. c #B17963",
"3. c #B37862",
"4. c #B57B62",
"5. c #B37A65",
"6. c #B57A66",
"7. c #B27C65",
"8. c #B37D66",
"9. c #B57C65",
"0. c #B67D64",
"q. c #B27B61",
"w. c #B87A60",
"e. c #B97B63",
"r. c #B57F69",
"t. c #B07E69",
"y. c #BB7F69",
"u. c #A27C71",
"i. c #A37D70",
"p. c #A87F71",
"a. c #9F816F",
"s. c #8F8079",
"d. c #938175",
"f. c #9A8072",
"g. c #9B8175",
"h. c #9F8375",
"j. c #9F8275",
"k. c #9C8176",
"l. c #9F8376",
"z. c #9C8175",
"x. c #95847C",
"c. c #998178",
"v. c #9D827A",
"b. c #988478",
"n. c #9F8678",
"m. c #99847C",
"M. c #9C847A",
"N. c #9F897D",
"B. c #9D897E",
"V. c #9A887E",
"C. c #AA8067",
"Z. c #A4806C",
"A. c #A8806D",
"S. c #B98063",
"D. c #B3826C",
"F. c #BA846A",
"G. c #A48172",
"H. c #A78373",
"J. c #A38174",
"K. c #A08077",
"L. c #A28176",
"P. c #A08376",
"I. c #A28377",
"U. c #A18275",
"Y. c #A58176",
"T. c #A38477",
"R. c #A58477",
"E. c #A28274",
"W. c #AB8373",
"Q. c #A3837B",
"!. c #A38579",
"~. c #A5867A",
"^. c #A6867A",
"/. c #A1877F",
"(. c #A28578",
"). c #A98679",
"_. c #A3897A",
"`. c #A3887C",
"'. c #B28473",
"]. c #B58872",
"[. c #C08E76",
"{. c #9E8B85",
"}. c #9B8982",
"|. c #A18C85",
" X c #A38A82",
".X c #AA8A81",
"XX c #A08E89",
/* pixels */
"H H H H K #. X<.5.r.6.2.0.0.7.7.7.0.;.P.H H $.G C r r r r u r Q ) u r r r r r B G @.C B ..@.H +.#.&.K K H H H H H b.:.H H H &.#.",
"x x d d z b Y.c b P n v S S v n b b F >.d j F j s : O = s : o q r o = s s = : : j V d d O.V d g x d d g d d z z d [ b d d d z b ",
"g d x x z l G.x n b x A n x P n b v D u.d j l j j : : s s :   e r # = s s : O : h l j j ' B d g j j d d V w.L l j ..j x d b g d ",
"v...l.l.P.P.{.(.~._.(.P.N.~.~.T.Q.Q.l.|.....] [ [  .` ^ ^ ` ( / / ( ` ` ^ `  .`  .` ....m.f.[ j.P...g.c.(.(...P...N.[ ....P.l.g.",
"K x l F I A x A A I I n G.2.P b T I l L V 4.V B V ] B h B B k = 5 k 5 V h 4 ` h &.B H V l V V I I b G u.x l l b g l Z V l A x G ",
"V z x b n v c n n P U c @.I P n b z z b z b b l d ) h s l s h = h h s s O 5 ) s l j l d d g l b b v G @.& z z x x d P v d n z G ",
"O.B G +.C G G C H &.&.H n.,.#.,.W.,.W.W.A.@.,.=.) X.*.a u u a y u a ) _ ) [ x.O.@.Z.;.G +.,.@.O.,.&.[ g.B G J ,.,.G @.G B C B ) ",
"=.;.;.;.@.p.}.@.A.=.@.,.;.,.@.W.p.p...}.@.;.*.O.O.*.) ' [ ) p / ` ) _ ) ) ) [ ' [ _ O.O.m.u.W.p.;.O.@.@.@.@.@.@.;.}..XH.G.;.;.=.",
"d z x z v F T.S b n v v z v z b x z F ;.b A l d j d V V V h : u w O s s s d s l l g j z [ 2.A L A x b j d d d g g ..e.L b b x d ",
"g l d d z K T.I g z z g x x x g d % G Y.d V Z l j O j s h B s y r : :   s k j j V l V d ` D d L V l b x j j g d g [ K j d L F j ",
"[ [ ..u.u...}...[ [ [ -.l...P.G.[ [ g.}.' ......] ` ] (  . .(  .} ` ` ( ( ..` ( [ .. .` b.v.[ n.l.[ f...[ [ ..[ ' V.l...[ P.P...",
"O.Z V Z V F V Z H F F L n.@.Y ].K V F V B H H H H m.G B +.O.C G r G C.7 k r ` k +.H K H t.H V 7.+.K H.`.Y K H F V l D H V V l _ ",
"H d d z z c d b l z d @ [ V + T g d g j g j g s s [ V O l k h k : s V O : k ( d s j s g L d d I V A +.=.x L L b j d d d d s < B ",
"@.B B B B H k 7.G B B h ..a f B B B J G G r B B 7 ] a w G O.u r 5 5 w w w _  .C 7 B B w G G C &.+.H _ ..D C B H H H B B G k h p ",
".._ ' j.[ g.}.T.;.) _ _ [ [ ) _ ' _  .b.[ [ ) [ [ j.[ [ ( ` ] / ` ) ) ( ( ` [ [ ' ( [ [ x.f.[ ) j.j.j.l.P.v.^.....x.[ *.[ [ [ l.",
"l V L l F K ..L m b g b j d j j d d B [ A V j j H H V Z h h d ) r : : O : s j F l j Z L ..K l V l l I I H I w.V V ..Z b l j d L ",
"A F V j j V [ L V I d d d s s s s s k a d s : s l s : : O O X r w X   : O X O s : : d d ( B s s + s j A Y V I I V [ j j H V > l ",
"( n.] ) a ) x.[ ` ( ) [ ) ( ) ) ) ) ` d.) ( ) ( ( ( ` ) y 0 y / ^ y y y ( ( p ( ( p ) (  .] ) ( ) ) ) ( [ ' ' [ [ | [ [ ..G.) p ",
";.B W.&.B B B B B B G B c.@.G &.G @.:.G +.+.C w w ] w r G u r r r a a u @.[  .+.G r w w B w J +.G N ) ] B B B +.G '.J H G O.B _ ",
"B g l j j s : > O j g % ) h I D.Y K l j l h l V h ( : O j : O o = #.&.H H k ( l j l k f s : d j s + 7 a + : O j j V j j V l + r ",
"r h B h h h s h h h h s ] r B H C J B 3 7 B B B B ` 5 3 k 7 5 3 = C r G B q ! k B B B G k 5 k k k h r ( s B k h h k k k B k s ) ",
"`.[ ( ( [ ` d.' ' [ ) ' j.[ ' ` ' ) ]  .) ) ) Q ) b.` ( ( ( Q ` ] ( ( ( ( ( ] ) ) ( ( ' d.` ) ) ( ) [ o.( [ ' [ )  .] [ P.[ ' ( ",
"K H k V V k [ s s V B B k j O s h $ 7 ' O : :   s B B h =   O e r o f s s s : s s : = j  .G s s s : j j s j V B H ] K j l s h K ",
"h s V H j s ( O O j d V l k l j s O 5 ' O s : s j h h V s o X w u f s O o : s s : O s s ( C l : : : s O > V +.&.Z ( h O s j : l ",
"p y ) [ ) y d.a ) u u ) ( [ n.` y y (  .u e y ) ) e e y p e e ! m...) y e y y y t y ) y } ( a y e y t a u ) [ [ y } ) y -...( e ",
"_ O.@.a u r r u a u G G  .u.*.*._ a a O.u u r u u / ) u *.a _ y *.a _ a C ) } r u u u u u r O.O.O.O.[ ] G O.u O.G.).@.O.=.=.G.B.",
"7 s h : X s O O s : s d ` ,.Z B l : h s : X o h Z ( s o h : k h G k B s s 5 ( O   : C V : : s h h j r y : s = s h K +.+.'.Y l _ ",
"u h B k 3 h h h h k B s ( C V D k 5 s $ k h = 7 B ] 5 = 5 = 3 h k C B 7 5 5 ^ h 3 = B B h s : s s h r ) O s s s : s h B B B s r ",
"] ( [ ] ` ' ` ` ( ( ` ( ] ( ) [ [ ( ` / ( ( y ( W ] ( ) Q Q W ! R (  .` ( (  .( ( ) W ) / ( ( ( ( ) `  .) ( ) ) ) / ( W ) ) ) ( ",
"h k s h s h ` s h h f 3 : s 3 s s : w p $ h 3 = 3 3 : h h h s y u   = : = = : h h = s 5 ! w s k k 5 h h h h h s 3 ] f f 3 = h h ",
"h K k : : = ` O : s V h : s O   O X 5 y O h H h B D   O o : X q w .           O k V h H ` 5 o : : : : O s h : O O ( O o : O s k ",
"u @.u q w e } 4 6 6 ) O.q u e q q q y / 4 e _ u ) u 4 4 q q 4 R ( w q q q q q 4 u _ u a ^ y 6 q q 6 q q q e q 6 6 { q 6 6 4 6 q ",
"[ u e u y *.) [ _ e e w  .) w e a a ) u _ u r u e X.[ ) ) _ ' ) u u u ) u ' X.O.u r y u ) ) ) _ ) _ ] g._ ) ) ) ) a u ) _ a u ` ",
"G h s h h k V H h = : o ) 7 : : s s : h B h : h k [ G V h M B B : : : s : 3 ] l h = k B H G B h B V a ..V H H k V h s h k s s a ",
"u 7 r 5 M B 7 r r G 5 s ` w = 3 = = = 3 w M 5 5 B  .w k M 5 3 7 5 5 = = = 5 ] B 7 5 7 r B 7 w 5 5 5 y ..B w G w 7 7 4 7 w 3 = ) ",
"`  .` ! ( ( / ] `  .( ` ] ` ! ! ^ ( ! ^ ( ! ! ( (  .! ( ( ( W / ! ! ! ( ! !  .W R ! ! ( ^ ( ( ( ! ! ^ X.` ` ] ] ] / ( ^ ` ] R ^ ",
"5 C B 5 : 5  .h 3 5 3 M = B 5 3 h k G ( k k = 3 = s h k 5 = = u a 3 5 5 B B 3 k 5 ; 5 s ( B h 5 3 5 3 5 k k 5 B G / B &.&.G = = ",
"s s H k O 5 ` o O : s : : s B Z V B O.` B k s s =     s B h X u r V F B H B k V M h 3   ( 5 s k s O     : : : k h  .k h k f   o ",
"8 p W t e 9 X.q q e u e q q ( l.' ' R  .u y p ) y q e t y t q ^ ( [ [ [ ` y e y t ( ( e { W q t e e q 8 8 8 1 8 9 } 0 t p 0 8 e ",
"` Q y y Q Q Q ( ( ( ) ( X.] ) ( ) ( ) ) ( ) ) ) ) s.( ) ) ) y ) ` Q ( ' Q ! } Q ) ) ) ) ) Q Q ) ) ) `  .y [ ( ( ( ( ( ] W y y ^ ",
"*.k : = s = s     s s : ( B d : s : s s : O O   : ] k o O O     j s : s : 3 ( O O O O s k s O O O X 4 ) O s s = s 3 h B B = = q ",
") k 7 B 7 = h     M w B ` r   s s = = 3 = = = = 3  .r k 3 = = = = = 5 = = 5 ` = = = = h B B 7 = =   r `   7 B G G 5 B = = = = [ ",
"} R ^  .` R ^ ( ! ! ( ` X. .] ` ! ! ! / ( ( ( ` ` } ! ` ! R R ! / ` ! ! y ! X.! ! ! ( ( ~ ^ ! R R W ` X.0 ! ` ] ^ ! R R ! ^ 0 ^ ",
"5 7 r 7 5 w  .w w 5 5 B B @.,.G r 3 ) ..h 5 7 C w 7 h r G k 3 e T.+.G 7 5 B B 5 5 w B k ] r r r h 5 = 5 k r C u C d.a a ;.O.G C ",
"3 s k = X = `   = s s s k H B V V O C [ O O : : h s : s B h j r =.h H h s k h : O O h s ) k h B h k s   : h : h B  .B k J C H J ",
"q q q 4 2 e } 4 q e q e a p.) a u 4 Q  .6 6 q a _ 6 4 4 u e e ( c.u y r e q 6 6 6 q *.u ! u q u q u q 4 q q q q q  .) [ T.*.e a ",
"` ( ..g.] ] ] ( ( ` ' ) } ^ ( g.] ` ` ` [ ' ( ( ) | ` ( ( ( ) ( ( ..c.] ) ` } [ ` ( ( ( ] ` ( ( ( ( ^ } Q ( ( ( ( ( W ` ( ( ( ^ ",
"w X k Z h : : : : O : X ( 7 o h s : : O : O O o o ( 3 o   O     O : j s o = ( : : : o o     O       6 Q X =       o s : : :   q ",
"w h 3               5   ) 4 o           : h k = 3 ] = : : s s = : :       = ( O h 3 3 k s   = 3 s : 6 ( : h =     : =   :   : u ",
"]  .] ( ( ! ! i i ! ` ! } ` y W ( ( ( ( p ( ] ` ] x.W R ( ( y 0 ( y 0 0 W ` } 0 ` ] ` ] ( 0 0 ( ( 0 ! / y ( 0 0 0 ( 0 y 0 p Q } ",
"5 B B w B r X.7 w 7 C G 4 w w w w w )  .5 w B B w w 7 4 w 7 5 ) ) 5 w w r w 7 w r B r 7 / u 5 w w w 4 5 4 w w w 4  .r B B 4 w 7 ",
"s h h h s h ` O O o s h :   O : : O 4 ) O h : s O : s O O O X r r X s s s : s s h : : X p 5 o O   : k s O s : : o ( : O j O O : ",
"7 w r r 4 q  .5 5 5 u _ 7 2 5 - 2 3 e / ; 5 5 5 5 3 2 5 ; r r W y = 5 5 ; 5 5 5 w 5 5 5 ! q - 2 u r 4 = 4 5 5 7 5 / w 5 w B M 7 ",
"] ( ` ] ] ` ..] ] ] ]  .} ^ ( ! ` ( ^ ] ! ! ( ` ` } ` ( ` ` ( ` ( ( ` ` ( ^ } ( ! ! ! ( ^ ( ! ` ` ( ` } ` ` ` ` `  .] ` [  .`  .",
"B s d s j s s j s $ : d ' B : : h h = = : h s s : ` 5 : : O O O : s = k s 3 ( : s s s h : = = s O O w ( O s s s s s s d j j d r ",
"B O d j j > d j j s s > Q k : : : :     s s = s : ( h O : : : : : : O O X * ( O s : s : h s O f : : w ) O : O O O s s d j j > r ",
"..a ) _ ) ) ) ) G._ _ ) X.[ a ) ) ( y y y 9 y t 9 } ( y ) y t y t t 0 y y 0 } y 9 9 t t ( Q ) ( ) Q `  .y ) ) ) ) ) ) ) ) [ ' ..",
"&.G G G G G c.H &.&.G #.+.G C G G C ' b.r e r r r r q a a _ u ` p w r r u u r r r r u 7 / u O.O.@.J C C C G G +.G d.O.G G C &.+.",
"A z d d d Z ..z b x z b x z z z d + k _ > :   = =     k : h : q r O : : o s s : = : : O ) k b s A d j j d d d d d u.j > s d d d ",
"s j j h V D P.g V l j j g g g g j h @.[ h B = = = - * 2 5 G C y t = * = 2 u 5 5 5 = 3 = ^ r h B :.H k h V h h h h ..k s s h h s ",
"..[ g...(.f.N...l.P.(.T.}.n.l.l...l. Xn.` / ] ` ! } / ] d.}  .} / ! ( ^ {  .~ E ` ` ` ] }. .B.XXB.l.g.m.j.........c...........c.",
"+.T y.A x b n n A n A P ^.I n I F.[.4.I V F B H H ] 3 h B k = = : 3 B @.&.a ] h B V K H V j F Y V z C -.x l j j j b Z j j g x +.",
"Z b L b d c v c v P S n ).4.n U e.[.S.v q.2.l k l ] s 3 3   = = 3 = B G :.r ) K F l k F V j l g d z B @.v x d x d g x d z d z G ",
",.B B H G C H G H K &.K  XW.K #.'.'.,.J +.G O.u u X.q e q 4 q q e 1 e _ ) y  .u u ) u O.G C G C C G _ P.B B C G C B B B B B B [ "
};
